<?xml version="1.0" encoding="UTF-8"?>
<svg id="Layer_1" xmlns="http://www.w3.org/2000/svg" version="1.1" xmlns:xlink="http://www.w3.org/1999/xlink" viewBox="0 0 640 640">
  <!-- Generator: Adobe Illustrator 29.5.1, SVG Export Plug-In . SVG Version: 2.1.0 Build 141)  -->
  <defs>
    <style>
      .st0 {
        fill: #fcaa67;
      }

      .st1 {
        opacity: .1;
      }

      .st2 {
        fill: url(#linear-gradient);
      }

      .st3 {
        fill: none;
        opacity: .2;
        stroke: #000;
        stroke-miterlimit: 10;
        stroke-width: 50px;
      }
    </style>
    <linearGradient id="linear-gradient" x1="105.893059" y1="82.1765979" x2="535.2508571" y2="559.0940291" gradientUnits="userSpaceOnUse">
      <stop offset="0" stop-color="#54442b"/>
      <stop offset="1" stop-color="#141204"/>
    </linearGradient>
  </defs>
  <circle class="st2" cx="320" cy="320" r="320"/>
  <g class="st1">
    <path d="M320,25c39.8357239,0,78.4667053,7.7962646,114.8197021,23.1723022,35.1253052,14.8568115,66.6764526,36.1308594,93.7768555,63.2311401,27.1002808,27.1004028,48.3743286,58.6515503,63.2311401,93.7768555,15.3760376,36.3529968,23.1723022,74.9839783,23.1723022,114.8197021s-7.7962646,78.4667206-23.1723022,114.8197174c-14.8568115,35.1252899-36.1308594,66.6764221-63.2311401,93.7768555-27.1004028,27.1002808-58.6515503,48.3742828-93.7768555,63.2311401-36.3529968,15.3759995-74.9839783,23.172287-114.8197021,23.172287s-78.4667206-7.7962875-114.8197174-23.172287c-35.1252899-14.8568573-66.6764221-36.1308594-93.7768555-63.2311401-27.1002808-27.1004333-48.3742828-58.6515656-63.2311401-93.7768555-15.3759995-36.3529968-23.172287-74.9839935-23.172287-114.8197174s7.7962875-78.4667053,23.172287-114.8197021c14.8568573-35.1253052,36.1308594-66.6764526,63.2311401-93.7768555,27.1004333-27.1002808,58.6515656-48.3743286,93.7768555-63.2311401,36.3529968-15.3760376,74.9839935-23.1723022,114.8197174-23.1723022M320,0C143.2688599,0,0,143.2688599,0,320s143.2688599,320,320,320,320-143.2688599,320-320S496.7311401,0,320,0h0Z"/>
  </g>
  <path class="st3" d="M499.7431193,280.2268993v119.8287701c0,6.6179523-5.3649103,11.9828626-11.9828626,11.9828626h-35.9486478c-6.6179523,0-11.9828626-5.3649103-11.9828626-11.9828626v-47.9315224c0-6.6179523-5.3649103-11.9828626-11.9828626-11.9828626h-.000024c-6.6179523,0-11.9828626,5.3649103-11.9828626,11.9828626v47.9315224c0,6.6179523-5.3649103,11.9828626-11.9828626,11.9828626h-23.9657732c-6.6179523,0-11.9828626-5.3649103-11.9828626-11.9828626v-47.9315224c0-6.6179523-5.3649103-11.9828626-11.9828626-11.9828626h-.000024c-6.6179523,0-11.9828626,5.3649103-11.9828626,11.9828626v47.9315224c0,6.6179523-5.3649103,11.9828626-11.9828626,11.9828626h-23.9657732c-6.6179523,0-11.9828626-5.3649103-11.9828626-11.9828626v-47.9315224c0-6.6179523-5.3649103-11.9828626-11.9828626-11.9828626h-.000024c-6.6179523,0-11.9828626,5.3649103-11.9828626,11.9828626v47.9315224c0,6.6179523-5.3649103,11.9828626-11.9828626,11.9828626h-23.9657732c-6.6179523,0-11.9828626-5.3649103-11.9828626-11.9828626v-47.9315224c0-6.6179523-5.3649103-11.9828626-11.9828626-11.9828626h-.000024c-6.6179523,0-11.9828626,5.3649103-11.9828626,11.9828626v47.9315224c0,6.6179523-5.3649103,11.9828626-11.9828626,11.9828626h-35.9486478c-6.6179523,0-11.9828626-5.3649103-11.9828626-11.9828626v-119.8287701c0-6.6179523,5.3649103-11.9828626,11.9828626-11.9828626h23.9657732c6.6179523,0,11.9828626-5.3649103,11.9828626-11.9828626v-11.9828986c0-6.6179523,5.3649103-11.9828626,11.9828626-11.9828626h23.9657732c6.6179523,0,11.9828626-5.3649103,11.9828626-11.9828626v-11.9828986c0-6.6179523,5.3649103-11.9828626,11.9828626-11.9828626h143.7945194c6.6179523,0,11.9828626,5.3649103,11.9828626,11.9828626v11.9828986c0,6.6179523,5.3649103,11.9828626,11.9828626,11.9828626h23.9657732c6.6179523,0,11.9828626,5.3649103,11.9828626,11.9828626v11.9828986c0,6.6179523,5.3649103,11.9828626,11.9828626,11.9828626h23.9657732c6.6179523,0,11.9828626,5.3649103,11.9828626,11.9828626Z"/>
  <path class="st0" d="M499.7431193,280.2268993v119.8287701c0,6.6179523-5.3649103,11.9828626-11.9828626,11.9828626h-35.9486478c-6.6179523,0-11.9828626-5.3649103-11.9828626-11.9828626v-47.9315224c0-6.6179523-5.3649103-11.9828626-11.9828626-11.9828626h-.000024c-6.6179523,0-11.9828626,5.3649103-11.9828626,11.9828626v47.9315224c0,6.6179523-5.3649103,11.9828626-11.9828626,11.9828626h-23.9657732c-6.6179523,0-11.9828626-5.3649103-11.9828626-11.9828626v-47.9315224c0-6.6179523-5.3649103-11.9828626-11.9828626-11.9828626h-.000024c-6.6179523,0-11.9828626,5.3649103-11.9828626,11.9828626v47.9315224c0,6.6179523-5.3649103,11.9828626-11.9828626,11.9828626h-23.9657732c-6.6179523,0-11.9828626-5.3649103-11.9828626-11.9828626v-47.9315224c0-6.6179523-5.3649103-11.9828626-11.9828626-11.9828626h-.000024c-6.6179523,0-11.9828626,5.3649103-11.9828626,11.9828626v47.9315224c0,6.6179523-5.3649103,11.9828626-11.9828626,11.9828626h-23.9657732c-6.6179523,0-11.9828626-5.3649103-11.9828626-11.9828626v-47.9315224c0-6.6179523-5.3649103-11.9828626-11.9828626-11.9828626h-.000024c-6.6179523,0-11.9828626,5.3649103-11.9828626,11.9828626v47.9315224c0,6.6179523-5.3649103,11.9828626-11.9828626,11.9828626h-35.9486478c-6.6179523,0-11.9828626-5.3649103-11.9828626-11.9828626v-119.8287701c0-6.6179523,5.3649103-11.9828626,11.9828626-11.9828626h23.9657732c6.6179523,0,11.9828626-5.3649103,11.9828626-11.9828626v-11.9828986c0-6.6179523,5.3649103-11.9828626,11.9828626-11.9828626h23.9657732c6.6179523,0,11.9828626-5.3649103,11.9828626-11.9828626v-11.9828986c0-6.6179523,5.3649103-11.9828626,11.9828626-11.9828626h143.7945194c6.6179523,0,11.9828626,5.3649103,11.9828626,11.9828626v11.9828986c0,6.6179523,5.3649103,11.9828626,11.9828626,11.9828626h23.9657732c6.6179523,0,11.9828626,5.3649103,11.9828626,11.9828626v11.9828986c0,6.6179523,5.3649103,11.9828626,11.9828626,11.9828626h23.9657732c6.6179523,0,11.9828626,5.3649103,11.9828626,11.9828626Z"/>
</svg>