<?xml version="1.0" encoding="UTF-8"?>
<svg id="Layer_1" xmlns="http://www.w3.org/2000/svg" version="1.1" xmlns:xlink="http://www.w3.org/1999/xlink" viewBox="0 0 640 640">
  <!-- Generator: Adobe Illustrator 29.5.1, SVG Export Plug-In . SVG Version: 2.1.0 Build 141)  -->
  <defs>
    <style>
      .st0 {
        fill: #fcaa67;
      }

      .st1 {
        opacity: .1;
      }

      .st2 {
        fill: url(#linear-gradient);
      }

      .st3 {
        fill: none;
        opacity: .2;
        stroke: #000;
        stroke-miterlimit: 10;
        stroke-width: 50px;
      }
    </style>
    <linearGradient id="linear-gradient" x1="105.893059" y1="82.1765979" x2="535.2508571" y2="559.0940291" gradientUnits="userSpaceOnUse">
      <stop offset="0" stop-color="#54442b"/>
      <stop offset="1" stop-color="#141204"/>
    </linearGradient>
  </defs>
  <rect class="st2" width="640" height="640"/>
  <path class="st3" d="M499.7431193,280.2268993v119.8287701c0,6.6179523-5.3649103,11.9828626-11.9828626,11.9828626h-35.9486478c-6.6179523,0-11.9828626-5.3649103-11.9828626-11.9828626v-47.9315224c0-6.6179523-5.3649103-11.9828626-11.9828626-11.9828626h-.000024c-6.6179523,0-11.9828626,5.3649103-11.9828626,11.9828626v47.9315224c0,6.6179523-5.3649103,11.9828626-11.9828626,11.9828626h-23.9657732c-6.6179523,0-11.9828626-5.3649103-11.9828626-11.9828626v-47.9315224c0-6.6179523-5.3649103-11.9828626-11.9828626-11.9828626h-.000024c-6.6179523,0-11.9828626,5.3649103-11.9828626,11.9828626v47.9315224c0,6.6179523-5.3649103,11.9828626-11.9828626,11.9828626h-23.9657732c-6.6179523,0-11.9828626-5.3649103-11.9828626-11.9828626v-47.9315224c0-6.6179523-5.3649103-11.9828626-11.9828626-11.9828626h-.000024c-6.6179523,0-11.9828626,5.3649103-11.9828626,11.9828626v47.9315224c0,6.6179523-5.3649103,11.9828626-11.9828626,11.9828626h-23.9657732c-6.6179523,0-11.9828626-5.3649103-11.9828626-11.9828626v-47.9315224c0-6.6179523-5.3649103-11.9828626-11.9828626-11.9828626h-.000024c-6.6179523,0-11.9828626,5.3649103-11.9828626,11.9828626v47.9315224c0,6.6179523-5.3649103,11.9828626-11.9828626,11.9828626h-35.9486478c-6.6179523,0-11.9828626-5.3649103-11.9828626-11.9828626v-119.8287701c0-6.6179523,5.3649103-11.9828626,11.9828626-11.9828626h23.9657732c6.6179523,0,11.9828626-5.3649103,11.9828626-11.9828626v-11.9828986c0-6.6179523,5.3649103-11.9828626,11.9828626-11.9828626h23.9657732c6.6179523,0,11.9828626-5.3649103,11.9828626-11.9828626v-11.9828986c0-6.6179523,5.3649103-11.9828626,11.9828626-11.9828626h143.7945194c6.6179523,0,11.9828626,5.3649103,11.9828626,11.9828626v11.9828986c0,6.6179523,5.3649103,11.9828626,11.9828626,11.9828626h23.9657732c6.6179523,0,11.9828626,5.3649103,11.9828626,11.9828626v11.9828986c0,6.6179523,5.3649103,11.9828626,11.9828626,11.9828626h23.9657732c6.6179523,0,11.9828626,5.3649103,11.9828626,11.9828626Z"/>
  <path class="st0" d="M499.7431193,280.2268993v119.8287701c0,6.6179523-5.3649103,11.9828626-11.9828626,11.9828626h-35.9486478c-6.6179523,0-11.9828626-5.3649103-11.9828626-11.9828626v-47.9315224c0-6.6179523-5.3649103-11.9828626-11.9828626-11.9828626h-.000024c-6.6179523,0-11.9828626,5.3649103-11.9828626,11.9828626v47.9315224c0,6.6179523-5.3649103,11.9828626-11.9828626,11.9828626h-23.9657732c-6.6179523,0-11.9828626-5.3649103-11.9828626-11.9828626v-47.9315224c0-6.6179523-5.3649103-11.9828626-11.9828626-11.9828626h-.000024c-6.6179523,0-11.9828626,5.3649103-11.9828626,11.9828626v47.9315224c0,6.6179523-5.3649103,11.9828626-11.9828626,11.9828626h-23.9657732c-6.6179523,0-11.9828626-5.3649103-11.9828626-11.9828626v-47.9315224c0-6.6179523-5.3649103-11.9828626-11.9828626-11.9828626h-.000024c-6.6179523,0-11.9828626,5.3649103-11.9828626,11.9828626v47.9315224c0,6.6179523-5.3649103,11.9828626-11.9828626,11.9828626h-23.9657732c-6.6179523,0-11.9828626-5.3649103-11.9828626-11.9828626v-47.9315224c0-6.6179523-5.3649103-11.9828626-11.9828626-11.9828626h-.000024c-6.6179523,0-11.9828626,5.3649103-11.9828626,11.9828626v47.9315224c0,6.6179523-5.3649103,11.9828626-11.9828626,11.9828626h-35.9486478c-6.6179523,0-11.9828626-5.3649103-11.9828626-11.9828626v-119.8287701c0-6.6179523,5.3649103-11.9828626,11.9828626-11.9828626h23.9657732c6.6179523,0,11.9828626-5.3649103,11.9828626-11.9828626v-11.9828986c0-6.6179523,5.3649103-11.9828626,11.9828626-11.9828626h23.9657732c6.6179523,0,11.9828626-5.3649103,11.9828626-11.9828626v-11.9828986c0-6.6179523,5.3649103-11.9828626,11.9828626-11.9828626h143.7945194c6.6179523,0,11.9828626,5.3649103,11.9828626,11.9828626v11.9828986c0,6.6179523,5.3649103,11.9828626,11.9828626,11.9828626h23.9657732c6.6179523,0,11.9828626,5.3649103,11.9828626,11.9828626v11.9828986c0,6.6179523,5.3649103,11.9828626,11.9828626,11.9828626h23.9657732c6.6179523,0,11.9828626,5.3649103,11.9828626,11.9828626Z"/>
</svg>
